# xmcd
#
# Track frame offsets: 
#        150
#        26401
#        62114
#        83861
#        106697
#        126510
#        149096
#        172518
#        203218
#        225648
#
# Disc length: 3421 seconds
#
# Revision: 0
# Processed by: cddbd v1.5.2PL0 Copyright (c) Steve Scherf et al.
# Submitted via: ExactAudioCopy v0.99pb4
#
DISCID=820d5b0a
DTITLE=ветров геннадий - тот, который смеет
DYEAR=2004
DGENRE=
TTITLE0=хобби
TTITLE1=разведчик
TTITLE2=битва при буратино
TTITLE3=граммафон
TTITLE4=горный бард
TTITLE5=т€га к прекрасному
TTITLE6=болельщик
TTITLE7=мои университеты
TTITLE8=непон€тки
TTITLE9=ннннн
EXTD=
EXTT0=
EXTT1=
EXTT2=
EXTT3=
EXTT4=
EXTT5=
EXTT6=
EXTT7=
EXTT8=
EXTT9=
PLAYORDER=
